<svg id="Flipbert_01" xmlns="http://www.w3.org/2000/svg" viewBox="0 0 273.835 261.5866"><rect x="0.5" y="0.5" width="272.835" height="260.5866" style="fill:#ef7d12;stroke:#ef7d12;stroke-miterlimit:10"/><path d="M360.94,111.7211c-34.6132-17.4571-80.4838-39.3273-80.4838-39.3273s-56.278,32.93-89.0853,51.892c0,31.4079-.602,96.6161-.602,96.6161s59.6057,33.6161,89.088,49.9634c15.666-8.4608,68.56-38.51,80.8653-45.2295" transform="translate(-138.9581 -38.6953)" style="fill:none;stroke:#fff;stroke-linecap:round;stroke-miterlimit:10;stroke-width:3px"/><polygon points="140.899 215.823 212.422 176.519 212.422 163.119 140.899 202.423 69.376 163.119 69.376 176.519 140.899 215.823" style="fill:#fff"/><polygon points="140.899 193.431 212.422 154.127 212.422 140.728 140.899 180.031 69.376 140.728 69.376 154.127 140.899 193.431" style="fill:#fff"/><polygon points="140.899 170.04 212.422 130.736 212.422 117.336 140.899 156.64 69.376 117.336 69.376 130.736 140.899 170.04" style="fill:#fff"/><polygon points="140.899 146.257 212.422 106.953 212.422 93.553 140.899 132.857 69.376 93.553 69.376 106.953 140.899 146.257" style="fill:#fff"/></svg>