<svg id="Ebene_2" data-name="Ebene 2" xmlns="http://www.w3.org/2000/svg" viewBox="0 0 11.2063 13.0358"><title>filpbert_logo_grau</title><path d="M11.6018,3.2736C9.5264,2.2268,6.7759.9155,6.7759.9155S3.4015,2.89,1.4343,4.027c0,1.8832-.0361,5.7932-.0361,5.7932S4.9722,11.8358,6.74,12.816c.9393-.5073,4.1109-2.3091,4.8487-2.712" transform="translate(-0.8955 -0.3502)" style="fill:none;stroke:#91979c;stroke-linecap:round;stroke-miterlimit:10"/><polygon points="5.845 11.486 10.133 9.129 10.133 8.325 5.845 10.682 1.556 8.325 1.556 9.129 5.845 11.486" style="fill:#91979c"/><polygon points="5.845 10.443 10.133 8.086 10.133 7.283 5.845 9.639 1.556 7.283 1.556 8.086 5.845 10.443" style="fill:#91979c"/><polygon points="5.845 9.4 10.133 7.043 10.133 6.24 5.845 8.597 1.556 6.24 1.556 7.043 5.845 9.4" style="fill:#91979c"/><polygon points="5.845 8.357 10.133 6.001 10.133 5.197 5.845 7.554 1.556 5.197 1.556 6.001 5.845 8.357" style="fill:#91979c"/><polygon points="5.845 7.314 10.133 4.958 10.133 4.154 5.845 6.511 1.556 4.154 1.556 4.958 5.845 7.314" style="fill:#91979c"/></svg>